<svg width="16" height="13" viewBox="0 0 16 13" fill="none" xmlns="http://www.w3.org/2000/svg">
<path d="M0 1.60002C0 1.17567 0.168573 0.768695 0.468634 0.468634C0.768695 0.168573 1.17567 0 1.60002 0H8.80009C9.22444 0 9.63142 0.168573 9.93148 0.468634C10.2315 0.768695 10.4001 1.17567 10.4001 1.60002V3.20003C10.4001 3.41221 10.3158 3.61569 10.1658 3.76573C10.0158 3.91576 9.81228 4.00004 9.6001 4.00004C9.38793 4.00004 9.18444 3.91576 9.03441 3.76573C8.88438 3.61569 8.80009 3.41221 8.80009 3.20003V1.60002H1.60002V11.2001H8.80009V9.6001C8.80009 9.38793 8.88438 9.18444 9.03441 9.03441C9.18444 8.88438 9.38793 8.80009 9.6001 8.80009C9.81228 8.80009 10.0158 8.88438 10.1658 9.03441C10.3158 9.18444 10.4001 9.38793 10.4001 9.6001V11.2001C10.4001 11.6245 10.2315 12.0314 9.93148 12.3315C9.63142 12.6316 9.22444 12.8001 8.80009 12.8001H1.60002C1.17567 12.8001 0.768695 12.6316 0.468634 12.3315C0.168573 12.0314 0 11.6245 0 11.2001V1.60002ZM12.2345 3.43444C12.3846 3.28446 12.588 3.20021 12.8001 3.20021C13.0123 3.20021 13.2157 3.28446 13.3657 3.43444L15.7658 5.83446C15.9157 5.98449 16 6.18793 16 6.40007C16 6.6122 15.9157 6.81565 15.7658 6.96567L13.3657 9.3657C13.2149 9.51143 13.0128 9.59206 12.803 9.59024C12.5933 9.58842 12.3926 9.50428 12.2443 9.35595C12.0959 9.20763 12.0118 9.00697 12.01 8.79721C12.0082 8.58745 12.0888 8.38537 12.2345 8.23449L13.2689 7.20008H5.60006C5.38788 7.20008 5.1844 7.11579 5.03437 6.96576C4.88434 6.81573 4.80005 6.61224 4.80005 6.40007C4.80005 6.18789 4.88434 5.98441 5.03437 5.83438C5.1844 5.68435 5.38788 5.60006 5.60006 5.60006H13.2689L12.2345 4.56565C12.0846 4.41562 12.0003 4.21218 12.0003 4.00004C12.0003 3.78791 12.0846 3.58446 12.2345 3.43444Z" fill="white"/>
</svg>
