<svg width="16" height="16" viewBox="0 0 16 16" fill="none" xmlns="http://www.w3.org/2000/svg">
<path d="M0 1.77778C0 1.30628 0.187301 0.854097 0.520699 0.520699C0.854097 0.187301 1.30628 0 1.77778 0H14.2222C14.6937 0 15.1459 0.187301 15.4793 0.520699C15.8127 0.854097 16 1.30628 16 1.77778V14.2222C16 14.6937 15.8127 15.1459 15.4793 15.4793C15.1459 15.8127 14.6937 16 14.2222 16H1.77778C1.30628 16 0.854097 15.8127 0.520699 15.4793C0.187301 15.1459 0 14.6937 0 14.2222V1.77778ZM14.2222 1.77778H1.77778V14.2222H14.2222V1.77778ZM8 3.55556C8.23575 3.55556 8.46184 3.64921 8.62854 3.81591C8.79524 3.9826 8.88889 4.2087 8.88889 4.44444V11.5556C8.88889 11.7913 8.79524 12.0174 8.62854 12.1841C8.46184 12.3508 8.23575 12.4444 8 12.4444C7.76425 12.4444 7.53816 12.3508 7.37146 12.1841C7.20476 12.0174 7.11111 11.7913 7.11111 11.5556V4.44444C7.11111 4.2087 7.20476 3.9826 7.37146 3.81591C7.53816 3.64921 7.76425 3.55556 8 3.55556ZM11.5556 5.33333C11.7913 5.33333 12.0174 5.42698 12.1841 5.59368C12.3508 5.76038 12.4444 5.98647 12.4444 6.22222V11.5556C12.4444 11.7913 12.3508 12.0174 12.1841 12.1841C12.0174 12.3508 11.7913 12.4444 11.5556 12.4444C11.3198 12.4444 11.0937 12.3508 10.927 12.1841C10.7603 12.0174 10.6667 11.7913 10.6667 11.5556V6.22222C10.6667 5.98647 10.7603 5.76038 10.927 5.59368C11.0937 5.42698 11.3198 5.33333 11.5556 5.33333ZM4.44444 7.11111C4.68019 7.11111 4.90628 7.20476 5.07298 7.37146C5.23968 7.53816 5.33333 7.76425 5.33333 8V11.5556C5.33333 11.7913 5.23968 12.0174 5.07298 12.1841C4.90628 12.3508 4.68019 12.4444 4.44444 12.4444C4.2087 12.4444 3.9826 12.3508 3.81591 12.1841C3.64921 12.0174 3.55556 11.7913 3.55556 11.5556V8C3.55556 7.76425 3.64921 7.53816 3.81591 7.37146C3.9826 7.20476 4.2087 7.11111 4.44444 7.11111Z" fill="black"/>
</svg>
