<svg width="16" height="17" viewBox="0 0 16 17" fill="none" xmlns="http://www.w3.org/2000/svg">
<path d="M16 8.0249C16 12.4432 12.4183 16.0249 8 16.0249C3.58172 16.0249 0 12.4432 0 8.0249C0 3.60662 3.58172 0.0249023 8 0.0249023C12.4183 0.0249023 16 3.60662 16 8.0249Z" fill="#CCCFD0"/>
<path d="M6.4 8.0249C6.4 7.14125 7.11634 6.4249 8 6.4249C8.88366 6.4249 9.6 7.14125 9.6 8.0249V11.2249C9.6 12.1086 8.88366 12.8249 8 12.8249C7.11634 12.8249 6.4 12.1086 6.4 11.2249V8.0249Z" fill="white"/>
<path d="M9.6 4.0249C9.6 4.90856 8.88366 5.6249 8 5.6249C7.11634 5.6249 6.4 4.90856 6.4 4.0249C6.4 3.14125 7.11634 2.4249 8 2.4249C8.88366 2.4249 9.6 3.14125 9.6 4.0249Z" fill="white"/>
</svg>
