<svg width="23" height="18" viewBox="0 0 23 18" fill="none" xmlns="http://www.w3.org/2000/svg">
<path fill-rule="evenodd" clip-rule="evenodd" d="M13.5609 0.571753C12.953 0.850711 12.243 1.31859 11.9827 1.61135C11.3334 2.34244 10.6598 4.0242 10.6598 4.91437C10.6598 5.63414 10.6294 5.64712 9.35381 5.47229C7.58694 5.23007 4.99314 3.96316 3.44426 2.58549C2.74276 1.96184 2.08989 1.53015 1.99374 1.62627C1.66496 1.95522 1.81775 4.22085 2.2214 5.00138C2.44299 5.42975 3.09586 6.16526 3.67192 6.63562L4.71961 7.491L3.80344 7.50012C3.29976 7.50536 2.64689 7.3808 2.35292 7.22364C1.94401 7.0049 1.81857 7.02755 1.81857 7.32087C1.81857 8.17376 3.12653 9.61356 4.56213 10.3405C6.13532 11.1373 6.00463 11.2702 3.79901 11.1161C2.9812 11.0589 2.90881 11.1086 3.15167 11.5624C3.62965 12.4548 4.53836 13.1036 6.00574 13.6002L7.43111 14.0827L6.2649 14.6773C5.5587 15.0378 4.26125 15.3501 2.97512 15.4695L0.851562 15.6669L2.37115 16.3864C4.63341 17.4581 6.56798 17.8287 8.87831 17.6334C14.5328 17.1556 18.8297 13.6593 20.1932 8.42647C20.4203 7.55453 20.6062 6.34424 20.6062 5.73688C20.6062 4.83511 20.796 4.43683 21.6423 3.56405L22.6784 2.49518L21.5732 2.67995L20.4681 2.865L21.2003 2.21815C21.6028 1.86241 22.1377 1.24125 22.3889 0.838005L22.8458 0.104707L21.1583 0.786081L19.4707 1.46745L18.0503 0.759842C16.3787 -0.0728871 15.0832 -0.127021 13.5609 0.571753Z" fill="#05A2F2"/>
</svg>
