<svg width="15" height="20" viewBox="0 0 15 20" fill="none" xmlns="http://www.w3.org/2000/svg">
<path d="M7.18943 0.524902C9.60815 0.524902 11.5104 2.38271 11.5104 4.66336C11.5104 6.94412 9.60802 8.80269 7.18943 8.80269C4.77169 8.80269 2.86842 6.94406 2.86842 4.66336C2.86842 2.38277 4.77157 0.524902 7.18943 0.524902ZM0.5 18.5249V16.0884C0.512268 16.0613 0.527724 16.0279 0.546461 15.9888C0.605918 15.8648 0.69818 15.6842 0.826129 15.4658C1.08251 15.0283 1.47932 14.4441 2.03853 13.861C3.15242 12.6993 4.90424 11.5449 7.5 11.5449C10.0958 11.5449 11.8476 12.6993 12.9615 13.861C13.5207 14.4441 13.9175 15.0283 14.1739 15.4658C14.3018 15.6842 14.3941 15.8648 14.4535 15.9888C14.4723 16.0279 14.4877 16.0613 14.5 16.0884V18.5249H0.5Z" stroke="#5D757E"/>
</svg>
