<svg width="15" height="14" viewBox="0 0 15 14" fill="none" xmlns="http://www.w3.org/2000/svg">
<path d="M2.20588 11.8131V13.5626C2.20588 13.6786 2.25236 13.7899 2.3351 13.8719C2.41784 13.9539 2.53005 14 2.64706 14H12.3529C12.4699 14 12.5822 13.9539 12.6649 13.8719C12.7476 13.7899 12.7941 13.6786 12.7941 13.5626V11.8131C13.3792 11.8131 13.9402 11.5827 14.3539 11.1725C14.7676 10.7624 15 10.2062 15 9.62615C15 9.04614 14.7676 8.48989 14.3539 8.07976C13.9402 7.66963 13.3792 7.43923 12.7941 7.43923V6.12707C12.7941 5.66307 12.6082 5.21806 12.2772 4.88996C11.9463 4.56186 11.4974 4.37753 11.0294 4.37753H7.94118V2.54927C8.23554 2.44609 8.48363 2.24307 8.6416 1.97608C8.79958 1.7091 8.85726 1.39534 8.80447 1.09027C8.75167 0.785193 8.59179 0.508444 8.35309 0.308935C8.11438 0.109425 7.81221 0 7.5 0C7.18779 0 6.88562 0.109425 6.64691 0.308935C6.40821 0.508444 6.24833 0.785193 6.19553 1.09027C6.14274 1.39534 6.20042 1.7091 6.3584 1.97608C6.51637 2.24307 6.76446 2.44609 7.05882 2.54927V4.37753H3.97059C3.50256 4.37753 3.0537 4.56186 2.72275 4.88996C2.39181 5.21806 2.20588 5.66307 2.20588 6.12707V7.43923C1.62085 7.43923 1.05977 7.66963 0.646088 8.07976C0.232405 8.48989 0 9.04614 0 9.62615C0 10.2062 0.232405 10.7624 0.646088 11.1725C1.05977 11.5827 1.62085 11.8131 2.20588 11.8131ZM7.5 0.878456C7.58726 0.878456 7.67255 0.904108 7.7451 0.952168C7.81766 1.00023 7.8742 1.06854 7.90759 1.14846C7.94099 1.22838 7.94972 1.31633 7.9327 1.40117C7.91568 1.48601 7.87366 1.56395 7.81196 1.62512C7.75026 1.68629 7.67165 1.72794 7.58607 1.74482C7.50049 1.7617 7.41178 1.75304 7.33117 1.71993C7.25056 1.68683 7.18165 1.63077 7.13317 1.55884C7.0847 1.48691 7.05882 1.40235 7.05882 1.31584C7.05882 1.19984 7.1053 1.08859 7.18804 1.00656C7.27078 0.924537 7.38299 0.878456 7.5 0.878456ZM7.94118 11.3757V13.1252H7.05882V11.3757H7.94118ZM6.17647 13.1252H5.29412V11.3757H6.17647V13.1252ZM8.82353 13.1252V11.3757H9.70588V13.1252H8.82353ZM14.1176 9.62615C14.1176 9.97416 13.9782 10.3079 13.73 10.554C13.4818 10.8001 13.1451 10.9383 12.7941 10.9383V8.314C13.1451 8.314 13.4818 8.45224 13.73 8.69832C13.9782 8.9444 14.1176 9.27815 14.1176 9.62615ZM3.08824 6.12707C3.08824 5.89507 3.1812 5.67257 3.34667 5.50852C3.51214 5.34447 3.73657 5.2523 3.97059 5.2523H11.0294C11.2634 5.2523 11.4879 5.34447 11.6533 5.50852C11.8188 5.67257 11.9118 5.89507 11.9118 6.12707V13.1252H10.5882V10.9383C10.5882 10.8223 10.5418 10.7111 10.459 10.629C10.3763 10.547 10.2641 10.5009 10.1471 10.5009H4.85294C4.73593 10.5009 4.62372 10.547 4.54098 10.629C4.45825 10.7111 4.41176 10.8223 4.41176 10.9383V13.1252H3.08824V6.12707ZM2.20588 8.314V10.9383C1.85486 10.9383 1.51822 10.8001 1.27001 10.554C1.0218 10.3079 0.882353 9.97416 0.882353 9.62615C0.882353 9.27815 1.0218 8.9444 1.27001 8.69832C1.51822 8.45224 1.85486 8.314 2.20588 8.314ZM5.29412 9.18877C5.55589 9.18877 5.81178 9.11181 6.02943 8.96763C6.24708 8.82345 6.41672 8.61852 6.5169 8.37875C6.61707 8.13899 6.64328 7.87516 6.59222 7.62062C6.54115 7.36609 6.41509 7.13229 6.22999 6.94878C6.0449 6.76527 5.80907 6.6403 5.55233 6.58967C5.29559 6.53904 5.02947 6.56503 4.78762 6.66434C4.54578 6.76365 4.33907 6.93184 4.19364 7.14762C4.04821 7.3634 3.97059 7.61709 3.97059 7.87661C3.97059 8.22462 4.11003 8.55837 4.35824 8.80445C4.60645 9.05052 4.9431 9.18877 5.29412 9.18877ZM5.29412 7.43923C5.38137 7.43923 5.46667 7.46488 5.53922 7.51294C5.61177 7.561 5.66832 7.62931 5.70171 7.70923C5.7351 7.78915 5.74384 7.8771 5.72682 7.96194C5.70979 8.04679 5.66778 8.12472 5.60608 8.18589C5.54438 8.24706 5.46577 8.28872 5.38019 8.30559C5.29461 8.32247 5.2059 8.31381 5.12529 8.2807C5.04467 8.2476 4.97577 8.19154 4.92729 8.11961C4.87882 8.04768 4.85294 7.96312 4.85294 7.87661C4.85294 7.76061 4.89942 7.64936 4.98216 7.56733C5.0649 7.48531 5.17711 7.43923 5.29412 7.43923ZM9.70588 9.18877C9.96765 9.18877 10.2235 9.11181 10.4412 8.96763C10.6588 8.82345 10.8285 8.61852 10.9287 8.37875C11.0288 8.13899 11.055 7.87516 11.004 7.62062C10.9529 7.36609 10.8269 7.13229 10.6418 6.94878C10.4567 6.76527 10.2208 6.6403 9.96409 6.58967C9.70735 6.53904 9.44123 6.56503 9.19939 6.66434C8.95755 6.76365 8.75084 6.93184 8.60541 7.14762C8.45998 7.3634 8.38235 7.61709 8.38235 7.87661C8.38235 8.22462 8.5218 8.55837 8.77001 8.80445C9.01822 9.05052 9.35486 9.18877 9.70588 9.18877ZM9.70588 7.43923C9.79314 7.43923 9.87844 7.46488 9.95099 7.51294C10.0235 7.561 10.0801 7.62931 10.1135 7.70923C10.1469 7.78915 10.1556 7.8771 10.1386 7.96194C10.1216 8.04679 10.0795 8.12472 10.0178 8.18589C9.95614 8.24706 9.87753 8.28872 9.79195 8.30559C9.70637 8.32247 9.61767 8.31381 9.53705 8.2807C9.45644 8.2476 9.38753 8.19154 9.33906 8.11961C9.29058 8.04768 9.26471 7.96312 9.26471 7.87661C9.26471 7.76061 9.31119 7.64936 9.39392 7.56733C9.47666 7.48531 9.58887 7.43923 9.70588 7.43923Z" fill="#DAFF01"/>
</svg>
