<svg width="13" height="14" viewBox="0 0 13 14" fill="none" xmlns="http://www.w3.org/2000/svg">
<path d="M6.4934 13.9999C6.42545 13.9999 6.3575 13.9847 6.29486 13.9538L0.244633 10.9648C0.0945441 10.8907 0 10.739 0 10.5734V3.4246C0 3.25894 0.094544 3.10727 0.245224 3.03319L6.30018 0.0459375C6.42486 -0.0153125 6.5714 -0.0153125 6.69608 0.0459375L12.754 3.03319C12.9047 3.10727 12.9992 3.25894 12.9992 3.4246V10.5699C12.9992 10.7355 12.9047 10.8872 12.754 10.9613L6.69136 13.9538C6.62931 13.9847 6.56136 13.9999 6.4934 13.9999ZM0.886351 10.3033L6.4934 13.0729L12.1129 10.2992V3.69527L6.49813 0.926771L0.886351 3.69527V10.3033ZM12.556 10.5699H12.562H12.556Z" fill="#9353FF"/>
<path d="M6.4934 13.9999C6.42545 13.9999 6.3575 13.9847 6.29486 13.9538L0.244633 10.9648C0.0945441 10.8907 0 10.739 0 10.5734V3.4246C0 3.25894 0.094544 3.10727 0.245224 3.03319L6.30018 0.0459375C6.42486 -0.0153125 6.5714 -0.0153125 6.69608 0.0459375L12.754 3.03319C12.9047 3.10727 12.9992 3.25894 12.9992 3.4246V10.5699C12.9992 10.7355 12.9047 10.8872 12.754 10.9613L6.69136 13.9538C6.62931 13.9847 6.56136 13.9999 6.4934 13.9999ZM0.886351 10.3033L6.4934 13.0729L12.1129 10.2992V3.69527L6.49813 0.926771L0.886351 3.69527V10.3033ZM12.556 10.5699H12.562H12.556Z" fill="black" fill-opacity="0.2"/>
<path d="M12.5564 11.0075C12.479 11.0075 12.401 10.9877 12.3295 10.9457L9.44003 9.24233C9.23026 9.11867 9.16112 8.84975 9.28698 8.64267C9.41166 8.43558 9.68348 8.36675 9.89443 8.49158L12.7839 10.1949C12.9937 10.3186 13.0628 10.5875 12.937 10.7946C12.8548 10.9317 12.7077 11.0075 12.5564 11.0075ZM3.33248 5.565C3.25507 5.565 3.17707 5.54517 3.10557 5.50317L0.216069 3.79983C0.00629982 3.67617 -0.0622447 3.40725 0.0630262 3.19958C0.187706 2.9925 0.45893 2.92367 0.670472 3.0485L3.55998 4.75183C3.77034 4.8755 3.83888 5.14442 3.71302 5.35208C3.63088 5.48917 3.48375 5.565 3.33248 5.565ZM0.444157 11.0133C0.292887 11.0133 0.145752 10.9375 0.0630262 10.8004C-0.0628356 10.5933 0.00570891 10.3244 0.216069 10.2007L3.10557 8.49742C3.31771 8.37317 3.58834 8.44142 3.71302 8.6485C3.83888 8.85558 3.77034 9.1245 3.55998 9.24817L0.670472 10.9515C0.599564 10.9935 0.521565 11.0133 0.444157 11.0133ZM9.66811 5.565C9.51684 5.565 9.36971 5.48917 9.28698 5.35208C9.16112 5.145 9.22966 4.87608 9.44003 4.75242L12.3295 3.04908C12.5411 2.92483 12.8123 2.9925 12.937 3.20017C13.0628 3.40725 12.9943 3.67617 12.7839 3.79983L9.89443 5.50317C9.82352 5.54517 9.74552 5.565 9.66811 5.565ZM6.49439 3.7975C6.24975 3.7975 6.05121 3.6015 6.05121 3.36V0.4375C6.05121 0.196 6.24975 0 6.49439 0C6.73902 0 6.93756 0.196 6.93756 0.4375V3.36C6.93756 3.6015 6.73902 3.7975 6.49439 3.7975ZM6.49439 14C6.24975 14 6.05121 13.804 6.05121 13.5625V10.6458C6.05121 10.4043 6.24975 10.2083 6.49439 10.2083C6.73902 10.2083 6.93756 10.4043 6.93756 10.6458V13.5625C6.93756 13.804 6.73902 14 6.49439 14Z" fill="#9353FF"/>
<path d="M12.5564 11.0075C12.479 11.0075 12.401 10.9877 12.3295 10.9457L9.44003 9.24233C9.23026 9.11867 9.16112 8.84975 9.28698 8.64267C9.41166 8.43558 9.68348 8.36675 9.89443 8.49158L12.7839 10.1949C12.9937 10.3186 13.0628 10.5875 12.937 10.7946C12.8548 10.9317 12.7077 11.0075 12.5564 11.0075ZM3.33248 5.565C3.25507 5.565 3.17707 5.54517 3.10557 5.50317L0.216069 3.79983C0.00629982 3.67617 -0.0622447 3.40725 0.0630262 3.19958C0.187706 2.9925 0.45893 2.92367 0.670472 3.0485L3.55998 4.75183C3.77034 4.8755 3.83888 5.14442 3.71302 5.35208C3.63088 5.48917 3.48375 5.565 3.33248 5.565ZM0.444157 11.0133C0.292887 11.0133 0.145752 10.9375 0.0630262 10.8004C-0.0628356 10.5933 0.00570891 10.3244 0.216069 10.2007L3.10557 8.49742C3.31771 8.37317 3.58834 8.44142 3.71302 8.6485C3.83888 8.85558 3.77034 9.1245 3.55998 9.24817L0.670472 10.9515C0.599564 10.9935 0.521565 11.0133 0.444157 11.0133ZM9.66811 5.565C9.51684 5.565 9.36971 5.48917 9.28698 5.35208C9.16112 5.145 9.22966 4.87608 9.44003 4.75242L12.3295 3.04908C12.5411 2.92483 12.8123 2.9925 12.937 3.20017C13.0628 3.40725 12.9943 3.67617 12.7839 3.79983L9.89443 5.50317C9.82352 5.54517 9.74552 5.565 9.66811 5.565ZM6.49439 3.7975C6.24975 3.7975 6.05121 3.6015 6.05121 3.36V0.4375C6.05121 0.196 6.24975 0 6.49439 0C6.73902 0 6.93756 0.196 6.93756 0.4375V3.36C6.93756 3.6015 6.73902 3.7975 6.49439 3.7975ZM6.49439 14C6.24975 14 6.05121 13.804 6.05121 13.5625V10.6458C6.05121 10.4043 6.24975 10.2083 6.49439 10.2083C6.73902 10.2083 6.93756 10.4043 6.93756 10.6458V13.5625C6.93756 13.804 6.73902 14 6.49439 14Z" fill="black" fill-opacity="0.2"/>
<path d="M6.49536 11.0831C6.42386 11.0831 6.35236 11.0662 6.28677 11.0317L3.12546 9.36924C2.98069 9.29282 2.89087 9.14465 2.89087 8.98307V5.01057C2.89087 4.8484 2.98128 4.69965 3.12664 4.62382L6.27437 2.97999C6.40614 2.90474 6.57159 2.89599 6.70809 2.96774L9.87472 4.6244C10.0195 4.70082 10.1099 4.84957 10.1099 5.01115V8.98307C10.1099 9.14465 10.0195 9.2934 9.87472 9.36924L6.70218 11.0317C6.63777 11.0662 6.56686 11.0831 6.49536 11.0831ZM3.77781 8.72057L6.49654 10.1497L9.22532 8.71999V5.27365L6.50423 3.85032L3.77781 5.27424V8.72057ZM6.49536 3.35974H6.50127H6.49536Z" fill="#9353FF"/>
<path d="M6.49536 11.0831C6.42386 11.0831 6.35236 11.0662 6.28677 11.0317L3.12546 9.36924C2.98069 9.29282 2.89087 9.14465 2.89087 8.98307V5.01057C2.89087 4.8484 2.98128 4.69965 3.12664 4.62382L6.27437 2.97999C6.40614 2.90474 6.57159 2.89599 6.70809 2.96774L9.87472 4.6244C10.0195 4.70082 10.1099 4.84957 10.1099 5.01115V8.98307C10.1099 9.14465 10.0195 9.2934 9.87472 9.36924L6.70218 11.0317C6.63777 11.0662 6.56686 11.0831 6.49536 11.0831ZM3.77781 8.72057L6.49654 10.1497L9.22532 8.71999V5.27365L6.50423 3.85032L3.77781 5.27424V8.72057ZM6.49536 3.35974H6.50127H6.49536Z" fill="black" fill-opacity="0.2"/>
</svg>
